<svg width="660" height="165" viewBox="0 0 660 165" fill="none" xmlns="http://www.w3.org/2000/svg">
<path d="M310.855 60.6914C315.795 57.4289 324.917 52.046 333.018 50.7419C344.84 48.8417 356.634 50.789 354.973 58.2311C353.414 65.3559 320.433 69.0727 308.658 63.9821C305.424 69.0384 302.694 74.4009 300.509 79.9919C304.912 77.775 316.957 72.3556 327.529 73.7876C339.875 75.4644 342.562 78.2969 338.272 82.8522C334.148 87.2315 310.04 87.0181 299.933 81.5769C299.7 82.2361 299.478 82.893 299.272 83.554C298.94 84.6176 295.864 84.3861 296.267 83.0828C296.881 81.1792 297.574 79.281 298.346 77.4096C301.309 70.8429 303.095 67.2121 307.232 61.1254C309.78 57.3449 312.656 53.796 315.825 50.5197C316.147 45.4691 317.411 30.6461 322.394 24.4514C328.449 16.9465 334.475 21.5972 332.523 28.7824C331.267 33.2761 329.364 37.5632 326.875 41.5089C329.513 39.849 332.3 38.4399 335.2 37.3003C340.06 32.4472 355.746 17.7888 362.02 24.9332C369.119 33.0077 348.049 41.9441 335.648 39.2982C325.492 43.6887 317.19 51.559 310.855 60.6914Z" fill="#BBBEA0"/>
<path d="M297.71 57.1211C295.1 51.8076 289.954 42.549 283.626 37.3257C274.39 29.7059 263.232 25.4188 260.9 32.6784C258.639 39.6126 285.208 59.505 297.94 61.0708C298.172 67.0686 297.814 73.0752 296.87 79.0035C294.194 74.8638 286.546 64.0952 276.702 59.9819C265.204 55.182 261.453 56.2659 262.849 62.3654C264.19 68.2291 285.094 80.242 296.565 80.6621C296.432 81.3485 296.291 82.0273 296.135 82.7019C295.883 83.7873 298.653 85.1436 298.965 83.8158C299.399 81.8632 299.761 79.8751 300.042 77.8702C300.809 70.7071 301.105 66.6716 300.615 59.3282C300.33 54.778 299.645 50.2621 298.569 45.8327C300.847 41.3131 307.255 27.8874 306.091 20.0231C304.666 10.4864 297.115 11.4493 295.163 18.6345C293.973 23.1461 293.445 27.8067 293.596 32.4695C292.161 29.7032 290.47 27.0777 288.545 24.6276C286.808 17.9824 280.694 -2.59721 271.667 0.390947C261.459 3.7645 275.112 22.1328 287.148 26.1243C293.687 35.0497 296.866 46.0386 297.71 57.1211Z" fill="#BBBEA0"/>
<path d="M16.3118 164.011C11.2993 164.011 7.30634 162.227 4.33283 158.659C1.44428 155.006 0 150.843 0 146.17C0 141.498 1.57171 137.335 4.71514 133.682C7.94352 129.944 11.7666 128.074 16.1844 128.074C18.0535 128.074 19.5827 128.542 20.7721 129.476C22.0465 130.326 22.6836 131.6 22.6836 133.299C22.6836 136.443 20.6447 138.014 16.5667 138.014C14.6976 138.014 13.0834 138.822 11.7241 140.436C10.3648 141.965 9.68515 143.919 9.68515 146.298C9.68515 148.592 10.3223 150.503 11.5967 152.032C12.8711 153.477 14.6552 154.199 16.949 154.199C24.8501 154.199 28.8006 141.965 28.8006 117.497C28.8006 110.786 28.1209 101.993 26.7616 91.118C25.4023 80.2434 24.7226 73.9141 24.7226 72.13C24.7226 70.2609 25.3173 68.7741 26.5067 67.6697C27.6961 66.5653 29.0979 66.013 30.7121 66.013C33.0909 66.013 35.0025 67.4998 36.4468 70.4733C41.0345 79.3938 47.5762 91.3304 56.0719 106.283C64.5677 121.235 71.9165 133.639 78.1184 143.494C77.7786 143.494 77.3538 137.59 76.844 125.781C76.4192 113.887 76.2068 106.07 76.2068 102.332C76.2068 92.9021 77.1414 84.8736 79.0104 78.2469C80.1149 74.4238 81.899 71.4503 84.3628 69.3264C86.9115 67.1175 89.8 66.013 93.0284 66.013C96.3418 66.013 99.1454 66.9051 101.439 68.6892C103.733 70.3883 104.88 72.3848 104.88 74.6787C104.88 76.9725 103.903 78.1195 101.949 78.1195C101.354 78.1195 100.122 77.7372 98.2533 76.9725C96.3842 76.2079 94.7276 75.8256 93.2833 75.8256C87.931 75.8256 85.2548 88.102 85.2548 112.655C85.2548 118.432 85.7221 127.267 86.6566 139.161C87.5911 151.055 88.0584 157.682 88.0584 159.041C88.0584 160.401 87.4637 161.633 86.2743 162.737C85.1699 163.842 83.853 164.394 82.3238 164.394C80.0299 164.394 78.0334 162.907 76.3343 159.934C72.0864 152.372 67.2438 143.919 61.8066 134.574L45.6222 105.646C40.9495 96.98 37.7211 91.2879 35.937 88.5692C37.1264 99.7836 37.7211 110.446 37.7211 120.556C37.7211 149.526 30.5847 164.011 16.3118 164.011Z" fill="white" fill-opacity="0.9"/>
<path d="M127.576 108.449L126.556 136.485C126.556 142.347 127.788 147.062 130.252 150.631C132.8 154.199 136.241 155.983 140.574 155.983C144.907 155.983 149.112 153.562 153.19 148.719C157.183 143.792 160.029 138.269 161.728 132.152L161.346 104.499C161.346 100.166 162.96 97.9995 166.189 97.9995C170.097 97.9995 172.051 100.931 172.051 106.793C172.051 112.57 171.201 121.023 169.502 132.152C169.502 138.354 169.927 143.537 170.776 147.7C171.711 151.778 172.858 154.071 174.217 154.581C174.727 154.836 175.322 155.006 176.001 155.091C176.766 155.176 177.276 155.303 177.531 155.473C177.87 155.643 178.04 155.983 178.04 156.493C178.04 158.787 177.318 160.656 175.874 162.1C174.515 163.544 172.773 164.266 170.649 164.266C165.297 164.266 162.621 158.829 162.621 147.955C156.334 158.829 148.433 164.266 138.917 164.266C132.121 164.266 126.853 161.76 123.115 156.748C119.377 151.565 117.508 145.363 117.508 138.142L118.273 118.899C118.273 116.265 117.933 113.122 117.253 109.469C116.574 105.731 116.234 103.394 116.234 102.46C116.234 101.525 116.743 100.548 117.763 99.5287C118.867 98.5093 120.184 97.9995 121.714 97.9995C125.622 97.9995 127.576 101.483 127.576 108.449Z" fill="white" fill-opacity="0.9"/>
<path d="M217.926 107.302L207.349 107.047L207.094 137.25C207.094 145.066 207.391 150.163 207.986 152.542C208.581 154.836 210.28 155.983 213.083 155.983C214.443 155.983 216.057 155.558 217.926 154.709C219.795 153.774 220.942 153.307 221.367 153.307C223.151 153.307 224.043 154.199 224.043 155.983C224.043 157.767 222.471 159.594 219.328 161.463C216.184 163.332 213.083 164.266 210.025 164.266C202.633 164.266 198.938 158.829 198.938 147.955L198.81 107.047C196.007 107.302 194.053 107.43 192.948 107.43C188.7 107.43 186.577 106.028 186.577 103.224C186.577 100.421 188.7 99.019 192.948 99.019L198.556 99.2739L198.301 85.001C198.301 80.7531 199.915 78.6292 203.143 78.6292C206.372 78.6292 207.986 80.7531 207.986 85.001L207.604 99.4013L217.926 98.8916C222.174 98.8916 224.298 100.336 224.298 103.224C224.298 105.943 222.174 107.302 217.926 107.302Z" fill="white" fill-opacity="0.9"/>
<path d="M247.225 133.809L247.608 157.767C247.608 162.1 245.993 164.266 242.765 164.266C238.857 164.266 236.903 161.378 236.903 155.601C236.903 149.739 237.752 141.243 239.452 130.113C239.452 126.545 239.069 121.575 238.305 115.203C237.625 108.747 237.285 104.839 237.285 103.479C237.285 102.12 237.752 100.888 238.687 99.7836C239.622 98.5942 240.811 97.9995 242.255 97.9995C243.699 97.9995 244.889 98.5942 245.823 99.7836C246.758 100.888 247.225 102.035 247.225 103.224C247.225 104.414 247.183 106.325 247.098 108.959C247.098 111.593 247.098 113.419 247.098 114.439C248.712 110.191 251.346 106.368 254.999 102.97C258.737 99.6562 262.433 97.9995 266.086 97.9995C269.824 97.9995 272.755 98.7641 274.879 100.293C277.088 101.738 278.192 103.394 278.192 105.263C278.192 107.132 277.725 108.577 276.79 109.596C275.856 110.616 274.624 111.125 273.095 111.125C271.65 111.125 270.036 110.361 268.252 108.832C266.638 107.217 265.279 106.41 264.174 106.41C261.371 106.41 258.1 109.469 254.362 115.586C250.624 121.618 248.245 127.692 247.225 133.809Z" fill="white" fill-opacity="0.9"/>
<path d="M300.647 104.371L300.01 131.133L300.647 157.895C300.647 162.142 299.033 164.266 295.804 164.266C292.576 164.266 290.962 162.142 290.962 157.895L291.599 131.133L290.962 104.371C290.962 100.123 292.576 97.9995 295.804 97.9995C299.033 97.9995 300.647 100.123 300.647 104.371Z" fill="white" fill-opacity="0.9"/>
<path d="M335.135 141.965L335.772 125.398C330.165 125.143 325.79 123.827 322.647 121.448C319.588 118.984 318.059 116.138 318.059 112.91C318.059 109.681 319.588 106.878 322.647 104.499C325.79 102.12 330.165 100.506 335.772 99.6562C335.008 86.6577 334.626 79.2664 334.626 77.4823C334.626 69.4963 342.357 65.5033 357.819 65.5033C368.693 65.5033 377.104 67.7547 383.051 72.2574C389.083 76.6752 392.099 82.1974 392.099 88.8241C392.099 95.4508 388.786 101.61 382.159 107.302C393.459 113.504 399.108 121.745 399.108 132.025C399.108 138.737 397.027 144.684 392.864 149.866C388.701 154.964 383.306 158.744 376.679 161.208C370.053 163.672 363.384 164.904 356.672 164.904C349.196 164.904 342.357 164.011 336.155 162.227C329.953 160.358 325.195 158.192 321.882 155.728C318.569 153.264 316.912 151.225 316.912 149.611C316.912 147.912 317.337 146.638 318.186 145.788C319.036 144.854 320.055 144.386 321.245 144.386C321.245 144.386 321.415 144.386 321.754 144.386C322.179 144.386 323.326 144.981 325.195 146.17C327.149 147.275 329.316 148.592 331.694 150.121C334.158 151.65 337.344 153.009 341.252 154.199C345.245 155.388 349.196 155.983 353.104 155.983C353.359 155.983 353.614 155.983 353.868 155.983C363.978 155.983 372.347 153.774 378.973 149.356C385.6 144.939 388.913 139.246 388.913 132.28C388.913 128.287 387.724 124.591 385.345 121.193C382.966 117.795 379.738 115.076 375.66 113.037C366.909 119.494 356.672 123.487 344.948 125.016L345.458 141.328C345.458 141.668 345.458 141.965 345.458 142.22C345.458 144.429 344.693 146 343.164 146.935C342.229 147.53 341.295 147.827 340.36 147.827L337.557 146.935C335.942 145.916 335.135 144.259 335.135 141.965ZM344.693 77.3548C344.693 80.3284 344.778 87.5073 344.948 98.8916C355.228 98.8916 364.955 100.506 374.131 103.734C379.823 99.4013 382.669 94.6437 382.669 89.4613C382.669 84.2789 380.545 80.4983 376.297 78.1195C372.049 75.6557 366.739 74.4238 360.368 74.4238C354.081 74.4238 348.856 75.4008 344.693 77.3548ZM344.693 107.557V116.35C348.431 116.18 352.552 115.458 357.054 114.184C361.642 112.825 365.21 111.295 367.759 109.596C363.086 108.067 356.587 107.302 348.261 107.302C346.732 107.302 345.543 107.387 344.693 107.557ZM335.9 116.86V108.194C329.868 108.874 326.852 110.276 326.852 112.4C326.852 115.203 329.868 116.69 335.9 116.86Z" fill="white" fill-opacity="0.9"/>
<path d="M422.071 131.26C422.071 138.312 424.025 144.301 427.933 149.229C431.841 154.156 436.726 156.62 442.588 156.62C448.535 156.62 453.547 154.156 457.625 149.229C461.788 144.216 463.87 138.184 463.87 131.133C463.87 124.081 461.873 118.092 457.88 113.164C453.972 108.152 449.087 105.646 443.225 105.646C437.448 105.646 432.435 108.152 428.188 113.164C424.11 118.177 422.071 124.209 422.071 131.26ZM421.433 155.218C415.826 148.677 413.023 140.691 413.023 131.26C413.023 121.83 415.869 113.844 421.561 107.302C427.253 100.676 434.432 97.3623 443.098 97.3623C451.763 97.3623 458.9 100.633 464.507 107.175C470.114 113.632 472.918 121.618 472.918 131.133C472.918 140.563 470.029 148.549 464.252 155.091C458.56 161.633 451.381 164.904 442.715 164.904C434.135 164.904 427.041 161.675 421.433 155.218Z" fill="white" fill-opacity="0.9"/>
<path d="M494.903 131.26C494.903 138.312 496.857 144.301 500.766 149.229C504.674 154.156 509.559 156.62 515.421 156.62C521.368 156.62 526.38 154.156 530.458 149.229C534.621 144.216 536.703 138.184 536.703 131.133C536.703 124.081 534.706 118.092 530.713 113.164C526.805 108.152 521.92 105.646 516.058 105.646C510.281 105.646 505.268 108.152 501.02 113.164C496.942 118.177 494.903 124.209 494.903 131.26ZM494.266 155.218C488.659 148.677 485.855 140.691 485.855 131.26C485.855 121.83 488.702 113.844 494.394 107.302C500.086 100.676 507.265 97.3623 515.93 97.3623C524.596 97.3623 531.732 100.633 537.34 107.175C542.947 113.632 545.75 121.618 545.75 131.133C545.75 140.563 542.862 148.549 537.085 155.091C531.393 161.633 524.214 164.904 515.548 164.904C506.967 164.904 499.873 161.675 494.266 155.218Z" fill="white" fill-opacity="0.9"/>
<path d="M654.01 122.85L653.373 142.857V148.337C653.543 151.82 654.393 153.902 655.922 154.581C656.517 154.751 657.196 154.921 657.961 155.091C658.726 155.176 659.235 155.303 659.49 155.473C659.83 155.643 660 155.983 660 156.493C660 158.702 659.278 160.571 657.834 162.1C656.474 163.544 654.86 164.266 652.991 164.266C649.848 164.266 647.639 163.034 646.364 160.571C645.09 158.107 644.453 154.326 644.453 149.229L644.963 125.781C644.963 119.919 643.816 115.246 641.522 111.763C639.228 108.194 636.084 106.41 632.091 106.41C628.098 106.41 624.19 108.832 620.367 113.674C616.544 118.517 613.868 123.996 612.339 130.113L612.721 157.767C612.721 162.1 611.107 164.266 607.879 164.266C603.971 164.266 602.017 161.378 602.017 155.601C602.017 149.739 602.866 141.243 604.565 130.113C604.565 114.311 600.232 106.41 591.567 106.41C587.574 106.41 583.666 108.832 579.843 113.674C576.02 118.517 573.343 123.996 571.814 130.113L572.196 157.767C572.196 162.1 570.582 164.266 567.354 164.266C563.446 164.266 561.492 161.378 561.492 155.601C561.492 149.739 562.341 141.243 564.041 130.113C564.041 126.545 563.658 121.533 562.894 115.076C562.214 108.619 561.874 104.711 561.874 103.352C561.874 101.993 562.341 100.761 563.276 99.6562C564.21 98.5517 565.4 97.9995 566.844 97.9995C568.288 97.9995 569.478 98.5517 570.412 99.6562C571.347 100.761 571.814 101.95 571.814 103.224C571.814 104.499 571.772 106.41 571.687 108.959C571.687 111.508 571.687 113.249 571.687 114.184C577.379 103.394 584.6 97.9995 593.351 97.9995C598.278 97.9995 602.314 99.4438 605.457 102.332C608.686 105.221 610.937 109.171 612.211 114.184C617.904 103.394 625.125 97.9995 633.876 97.9995C640.332 97.9995 645.26 100.421 648.658 105.263C652.226 110.106 654.01 115.968 654.01 122.85Z" fill="white" fill-opacity="0.9"/>
</svg>
